STARTFONT 2.1
FONT -bited-anakron-Regular-R-Normal--12-110-75-75-P-80-ISO10646-1
SIZE 11 75 75
FONTBOUNDINGBOX 8 11 0 -2
STARTPROPERTIES 25
FOUNDRY "bited"
FAMILY_NAME "anakron"
WEIGHT_NAME "Regular"
SLANT "R"
SETWIDTH_NAME "Normal"
ADD_STYLE_NAME ""
PIXEL_SIZE 12
POINT_SIZE 110
RESOLUTION_X 75
RESOLUTION_Y 75
SPACING "P"
AVERAGE_WIDTH 80
CHARSET_REGISTRY "ISO10646"
CHARSET_ENCODING "1"
FONT_ASCENT 10
FONT_DESCENT 2
CAP_HEIGHT 7
X_HEIGHT 5
COPYRIGHT ""
BITED_DWIDTH 8
BITED_WIDTHS "212 H4sIAAAAAAAACmNgwAkAs1J6GhsAAAA="
BITED_TABLE_WIDTH -16
BITED_TABLE_CELL_SCALE 2
BITED_EDITOR_GRID_SIZE 32
BITED_EDITOR_CELL_SIZE 12
ENDPROPERTIES
CHARS 212
STARTCHAR U+0020
ENCODING 32
SWIDTH 960 0
DWIDTH 8 0
BBX 0 0 0 0
BITMAP
ENDCHAR
STARTCHAR U+0021
ENCODING 33
SWIDTH 960 0
DWIDTH 8 0
BBX 4 8 2 0
BITMAP
60
F0
F0
60
60
00
60
60
ENDCHAR
STARTCHAR U+0022
ENCODING 34
SWIDTH 960 0
DWIDTH 8 0
BBX 5 3 2 4
BITMAP
D8
D8
D8
ENDCHAR
STARTCHAR U+0023
ENCODING 35
SWIDTH 960 0
DWIDTH 8 0
BBX 7 7 1 0
BITMAP
6C
6C
FE
6C
FE
6C
6C
ENDCHAR
STARTCHAR U+0024
ENCODING 36
SWIDTH 960 0
DWIDTH 8 0
BBX 6 9 1 -1
BITMAP
10
10
78
C0
78
0C
78
20
20
ENDCHAR
STARTCHAR U+0025
ENCODING 37
SWIDTH 960 0
DWIDTH 8 0
BBX 6 7 1 0
BITMAP
C4
CC
18
30
60
CC
8C
ENDCHAR
STARTCHAR U+0026
ENCODING 38
SWIDTH 960 0
DWIDTH 8 0
BBX 6 7 1 0
BITMAP
38
68
60
6C
D8
D8
6C
ENDCHAR
STARTCHAR U+0027
ENCODING 39
SWIDTH 960 0
DWIDTH 8 0
BBX 2 3 3 4
BITMAP
C0
C0
C0
ENDCHAR
STARTCHAR U+0028
ENCODING 40
SWIDTH 960 0
DWIDTH 8 0
BBX 4 7 2 0
BITMAP
30
60
C0
C0
C0
60
30
ENDCHAR
STARTCHAR U+0029
ENCODING 41
SWIDTH 960 0
DWIDTH 8 0
BBX 4 7 2 0
BITMAP
C0
60
30
30
30
60
C0
ENDCHAR
STARTCHAR U+002A
ENCODING 42
SWIDTH 960 0
DWIDTH 8 0
BBX 6 5 1 1
BITMAP
48
30
FC
30
48
ENDCHAR
STARTCHAR U+002B
ENCODING 43
SWIDTH 960 0
DWIDTH 8 0
BBX 6 5 1 1
BITMAP
30
30
FC
30
30
ENDCHAR
STARTCHAR U+002C
ENCODING 44
SWIDTH 960 0
DWIDTH 8 0
BBX 2 4 3 -2
BITMAP
C0
C0
40
80
ENDCHAR
STARTCHAR U+002D
ENCODING 45
SWIDTH 960 0
DWIDTH 8 0
BBX 4 1 2 3
BITMAP
F0
ENDCHAR
STARTCHAR U+002E
ENCODING 46
SWIDTH 960 0
DWIDTH 8 0
BBX 2 2 3 0
BITMAP
C0
C0
ENDCHAR
STARTCHAR U+002F
ENCODING 47
SWIDTH 960 0
DWIDTH 8 0
BBX 6 7 1 0
BITMAP
04
0C
18
30
60
C0
80
ENDCHAR
STARTCHAR U+0030
ENCODING 48
SWIDTH 960 0
DWIDTH 8 0
BBX 6 7 1 0
BITMAP
78
CC
DC
FC
EC
CC
78
ENDCHAR
STARTCHAR U+0031
ENCODING 49
SWIDTH 960 0
DWIDTH 8 0
BBX 6 7 1 0
BITMAP
10
30
F0
30
30
30
FC
ENDCHAR
STARTCHAR U+0032
ENCODING 50
SWIDTH 960 0
DWIDTH 8 0
BBX 6 7 1 0
BITMAP
78
CC
0C
18
30
64
FC
ENDCHAR
STARTCHAR U+0033
ENCODING 51
SWIDTH 960 0
DWIDTH 8 0
BBX 6 7 1 0
BITMAP
78
CC
0C
38
0C
CC
78
ENDCHAR
STARTCHAR U+0034
ENCODING 52
SWIDTH 960 0
DWIDTH 8 0
BBX 6 7 1 0
BITMAP
08
18
38
58
FC
18
18
ENDCHAR
STARTCHAR U+0035
ENCODING 53
SWIDTH 960 0
DWIDTH 8 0
BBX 6 7 1 0
BITMAP
FC
C0
F8
0C
0C
CC
78
ENDCHAR
STARTCHAR U+0036
ENCODING 54
SWIDTH 960 0
DWIDTH 8 0
BBX 6 7 1 0
BITMAP
38
60
C0
D8
CC
CC
78
ENDCHAR
STARTCHAR U+0037
ENCODING 55
SWIDTH 960 0
DWIDTH 8 0
BBX 6 7 1 0
BITMAP
FC
8C
18
18
30
30
30
ENDCHAR
STARTCHAR U+0038
ENCODING 56
SWIDTH 960 0
DWIDTH 8 0
BBX 6 7 1 0
BITMAP
78
CC
CC
78
CC
CC
78
ENDCHAR
STARTCHAR U+0039
ENCODING 57
SWIDTH 960 0
DWIDTH 8 0
BBX 6 7 1 0
BITMAP
78
CC
CC
6C
0C
18
70
ENDCHAR
STARTCHAR U+003A
ENCODING 58
SWIDTH 960 0
DWIDTH 8 0
BBX 2 6 3 0
BITMAP
C0
C0
00
00
C0
C0
ENDCHAR
STARTCHAR U+003B
ENCODING 59
SWIDTH 960 0
DWIDTH 8 0
BBX 2 8 3 -2
BITMAP
C0
C0
00
00
C0
C0
40
80
ENDCHAR
STARTCHAR U+003C
ENCODING 60
SWIDTH 960 0
DWIDTH 8 0
BBX 5 7 1 0
BITMAP
18
30
60
C0
60
30
18
ENDCHAR
STARTCHAR U+003D
ENCODING 61
SWIDTH 960 0
DWIDTH 8 0
BBX 6 4 1 1
BITMAP
FC
00
00
FC
ENDCHAR
STARTCHAR U+003E
ENCODING 62
SWIDTH 960 0
DWIDTH 8 0
BBX 5 7 2 0
BITMAP
C0
60
30
18
30
60
C0
ENDCHAR
STARTCHAR U+003F
ENCODING 63
SWIDTH 960 0
DWIDTH 8 0
BBX 6 8 1 0
BITMAP
78
CC
0C
18
30
00
30
30
ENDCHAR
STARTCHAR U+0040
ENCODING 64
SWIDTH 960 0
DWIDTH 8 0
BBX 6 7 1 0
BITMAP
78
CC
DC
DC
DC
C0
78
ENDCHAR
STARTCHAR U+0041
ENCODING 65
SWIDTH 960 0
DWIDTH 8 0
BBX 6 7 1 0
BITMAP
10
28
4C
FC
CC
CC
CC
ENDCHAR
STARTCHAR U+0042
ENCODING 66
SWIDTH 960 0
DWIDTH 8 0
BBX 6 7 1 0
BITMAP
F8
CC
CC
D8
CC
CC
D8
ENDCHAR
STARTCHAR U+0043
ENCODING 67
SWIDTH 960 0
DWIDTH 8 0
BBX 6 7 1 0
BITMAP
78
CC
C0
C0
C0
CC
78
ENDCHAR
STARTCHAR U+0044
ENCODING 68
SWIDTH 960 0
DWIDTH 8 0
BBX 6 7 1 0
BITMAP
F0
C8
CC
CC
CC
C8
F0
ENDCHAR
STARTCHAR U+0045
ENCODING 69
SWIDTH 960 0
DWIDTH 8 0
BBX 6 7 1 0
BITMAP
FC
C4
C0
F0
C0
C4
FC
ENDCHAR
STARTCHAR U+0046
ENCODING 70
SWIDTH 960 0
DWIDTH 8 0
BBX 6 7 1 0
BITMAP
FC
C4
C0
F0
C0
C0
C0
ENDCHAR
STARTCHAR U+0047
ENCODING 71
SWIDTH 960 0
DWIDTH 8 0
BBX 6 7 1 0
BITMAP
78
CC
C0
DC
CC
CC
6C
ENDCHAR
STARTCHAR U+0048
ENCODING 72
SWIDTH 960 0
DWIDTH 8 0
BBX 6 7 1 0
BITMAP
CC
CC
CC
FC
CC
CC
CC
ENDCHAR
STARTCHAR U+0049
ENCODING 73
SWIDTH 960 0
DWIDTH 8 0
BBX 6 7 1 0
BITMAP
FC
30
30
30
30
30
FC
ENDCHAR
STARTCHAR U+004A
ENCODING 74
SWIDTH 960 0
DWIDTH 8 0
BBX 6 8 1 -1
BITMAP
7C
18
18
18
18
18
D8
70
ENDCHAR
STARTCHAR U+004B
ENCODING 75
SWIDTH 960 0
DWIDTH 8 0
BBX 6 7 1 0
BITMAP
CC
CC
C8
D0
E8
CC
CC
ENDCHAR
STARTCHAR U+004C
ENCODING 76
SWIDTH 960 0
DWIDTH 8 0
BBX 6 7 1 0
BITMAP
C0
C0
C0
C0
C0
C4
FC
ENDCHAR
STARTCHAR U+004D
ENCODING 77
SWIDTH 960 0
DWIDTH 8 0
BBX 6 7 1 0
BITMAP
84
CC
FC
D4
C4
C4
C4
ENDCHAR
STARTCHAR U+004E
ENCODING 78
SWIDTH 960 0
DWIDTH 8 0
BBX 6 7 1 0
BITMAP
8C
CC
EC
DC
CC
CC
CC
ENDCHAR
STARTCHAR U+004F
ENCODING 79
SWIDTH 960 0
DWIDTH 8 0
BBX 6 7 1 0
BITMAP
78
CC
CC
CC
CC
CC
78
ENDCHAR
STARTCHAR U+0050
ENCODING 80
SWIDTH 960 0
DWIDTH 8 0
BBX 6 7 1 0
BITMAP
F8
CC
CC
D8
C0
C0
C0
ENDCHAR
STARTCHAR U+0051
ENCODING 81
SWIDTH 960 0
DWIDTH 8 0
BBX 6 8 1 -1
BITMAP
78
CC
CC
CC
CC
C8
70
0C
ENDCHAR
STARTCHAR U+0052
ENCODING 82
SWIDTH 960 0
DWIDTH 8 0
BBX 6 7 1 0
BITMAP
F8
CC
CC
D8
C8
CC
CC
ENDCHAR
STARTCHAR U+0053
ENCODING 83
SWIDTH 960 0
DWIDTH 8 0
BBX 6 7 1 0
BITMAP
78
CC
C0
78
0C
CC
78
ENDCHAR
STARTCHAR U+0054
ENCODING 84
SWIDTH 960 0
DWIDTH 8 0
BBX 6 7 1 0
BITMAP
FC
30
30
30
30
30
30
ENDCHAR
STARTCHAR U+0055
ENCODING 85
SWIDTH 960 0
DWIDTH 8 0
BBX 6 7 1 0
BITMAP
CC
CC
CC
CC
CC
CC
78
ENDCHAR
STARTCHAR U+0056
ENCODING 86
SWIDTH 960 0
DWIDTH 8 0
BBX 6 7 1 0
BITMAP
CC
CC
CC
CC
C8
50
20
ENDCHAR
STARTCHAR U+0057
ENCODING 87
SWIDTH 960 0
DWIDTH 8 0
BBX 6 7 1 0
BITMAP
C4
C4
D4
D4
D4
D4
68
ENDCHAR
STARTCHAR U+0058
ENCODING 88
SWIDTH 960 0
DWIDTH 8 0
BBX 6 7 1 0
BITMAP
CC
CC
48
30
48
CC
CC
ENDCHAR
STARTCHAR U+0059
ENCODING 89
SWIDTH 960 0
DWIDTH 8 0
BBX 6 8 1 -1
BITMAP
CC
CC
DC
6C
0C
0C
CC
78
ENDCHAR
STARTCHAR U+005A
ENCODING 90
SWIDTH 960 0
DWIDTH 8 0
BBX 6 7 1 0
BITMAP
FC
8C
18
30
60
C4
FC
ENDCHAR
STARTCHAR U+005B
ENCODING 91
SWIDTH 960 0
DWIDTH 8 0
BBX 4 9 2 -1
BITMAP
F0
C0
C0
C0
C0
C0
C0
C0
F0
ENDCHAR
STARTCHAR U+005C
ENCODING 92
SWIDTH 960 0
DWIDTH 8 0
BBX 6 7 1 0
BITMAP
80
C0
60
30
18
0C
04
ENDCHAR
STARTCHAR U+005D
ENCODING 93
SWIDTH 960 0
DWIDTH 8 0
BBX 4 9 2 -1
BITMAP
F0
30
30
30
30
30
30
30
F0
ENDCHAR
STARTCHAR U+005E
ENCODING 94
SWIDTH 960 0
DWIDTH 8 0
BBX 7 4 1 3
BITMAP
10
38
6C
C6
ENDCHAR
STARTCHAR U+005F
ENCODING 95
SWIDTH 960 0
DWIDTH 8 0
BBX 6 1 1 -1
BITMAP
FC
ENDCHAR
STARTCHAR U+0060
ENCODING 96
SWIDTH 960 0
DWIDTH 8 0
BBX 4 3 2 4
BITMAP
C0
60
30
ENDCHAR
STARTCHAR U+0061
ENCODING 97
SWIDTH 960 0
DWIDTH 8 0
BBX 6 5 1 0
BITMAP
78
0C
7C
CC
6C
ENDCHAR
STARTCHAR U+0062
ENCODING 98
SWIDTH 960 0
DWIDTH 8 0
BBX 6 7 1 0
BITMAP
C0
C0
D8
EC
CC
CC
D8
ENDCHAR
STARTCHAR U+0063
ENCODING 99
SWIDTH 960 0
DWIDTH 8 0
BBX 6 5 1 0
BITMAP
78
CC
C0
CC
78
ENDCHAR
STARTCHAR U+0064
ENCODING 100
SWIDTH 960 0
DWIDTH 8 0
BBX 6 7 1 0
BITMAP
0C
0C
6C
DC
CC
CC
6C
ENDCHAR
STARTCHAR U+0065
ENCODING 101
SWIDTH 960 0
DWIDTH 8 0
BBX 6 5 1 0
BITMAP
78
CC
FC
C0
78
ENDCHAR
STARTCHAR U+0066
ENCODING 102
SWIDTH 960 0
DWIDTH 8 0
BBX 6 9 1 -2
BITMAP
1C
30
FC
30
30
30
30
30
E0
ENDCHAR
STARTCHAR U+0067
ENCODING 103
SWIDTH 960 0
DWIDTH 8 0
BBX 6 7 1 -1
BITMAP
0C
78
CC
78
C0
78
0C
ENDCHAR
STARTCHAR U+0068
ENCODING 104
SWIDTH 960 0
DWIDTH 8 0
BBX 6 7 1 0
BITMAP
C0
C0
D8
EC
CC
CC
CC
ENDCHAR
STARTCHAR U+0069
ENCODING 105
SWIDTH 960 0
DWIDTH 8 0
BBX 6 7 1 0
BITMAP
30
00
F0
30
30
30
1C
ENDCHAR
STARTCHAR U+006A
ENCODING 106
SWIDTH 960 0
DWIDTH 8 0
BBX 5 9 1 -2
BITMAP
18
00
78
18
18
18
18
D8
70
ENDCHAR
STARTCHAR U+006B
ENCODING 107
SWIDTH 960 0
DWIDTH 8 0
BBX 6 7 1 0
BITMAP
C0
C0
CC
CC
D8
EC
CC
ENDCHAR
STARTCHAR U+006C
ENCODING 108
SWIDTH 960 0
DWIDTH 8 0
BBX 6 7 1 0
BITMAP
F0
30
30
30
30
30
1C
ENDCHAR
STARTCHAR U+006D
ENCODING 109
SWIDTH 960 0
DWIDTH 8 0
BBX 6 5 1 0
BITMAP
E8
D4
D4
D4
D4
ENDCHAR
STARTCHAR U+006E
ENCODING 110
SWIDTH 960 0
DWIDTH 8 0
BBX 6 5 1 0
BITMAP
D8
EC
CC
CC
CC
ENDCHAR
STARTCHAR U+006F
ENCODING 111
SWIDTH 960 0
DWIDTH 8 0
BBX 6 5 1 0
BITMAP
78
CC
CC
CC
78
ENDCHAR
STARTCHAR U+0070
ENCODING 112
SWIDTH 960 0
DWIDTH 8 0
BBX 6 7 1 -2
BITMAP
D8
EC
CC
CC
D8
C0
C0
ENDCHAR
STARTCHAR U+0071
ENCODING 113
SWIDTH 960 0
DWIDTH 8 0
BBX 6 7 1 -2
BITMAP
6C
DC
CC
CC
6C
0C
0C
ENDCHAR
STARTCHAR U+0072
ENCODING 114
SWIDTH 960 0
DWIDTH 8 0
BBX 6 5 1 0
BITMAP
EC
70
60
60
60
ENDCHAR
STARTCHAR U+0073
ENCODING 115
SWIDTH 960 0
DWIDTH 8 0
BBX 6 5 1 0
BITMAP
78
C0
78
0C
78
ENDCHAR
STARTCHAR U+0074
ENCODING 116
SWIDTH 960 0
DWIDTH 8 0
BBX 6 7 1 0
BITMAP
30
30
FC
30
30
30
1C
ENDCHAR
STARTCHAR U+0075
ENCODING 117
SWIDTH 960 0
DWIDTH 8 0
BBX 6 5 1 0
BITMAP
CC
CC
CC
DC
6C
ENDCHAR
STARTCHAR U+0076
ENCODING 118
SWIDTH 960 0
DWIDTH 8 0
BBX 6 5 1 0
BITMAP
CC
CC
C8
50
20
ENDCHAR
STARTCHAR U+0077
ENCODING 119
SWIDTH 960 0
DWIDTH 8 0
BBX 6 5 1 0
BITMAP
D4
D4
D4
D4
68
ENDCHAR
STARTCHAR U+0078
ENCODING 120
SWIDTH 960 0
DWIDTH 8 0
BBX 6 5 1 0
BITMAP
CC
CC
78
CC
CC
ENDCHAR
STARTCHAR U+0079
ENCODING 121
SWIDTH 960 0
DWIDTH 8 0
BBX 6 7 1 -2
BITMAP
CC
CC
CC
DC
6C
0C
78
ENDCHAR
STARTCHAR U+007A
ENCODING 122
SWIDTH 960 0
DWIDTH 8 0
BBX 6 5 1 0
BITMAP
FC
98
30
64
FC
ENDCHAR
STARTCHAR U+007B
ENCODING 123
SWIDTH 960 0
DWIDTH 8 0
BBX 6 9 1 -1
BITMAP
1C
30
30
30
E0
30
30
30
1C
ENDCHAR
STARTCHAR U+007C
ENCODING 124
SWIDTH 960 0
DWIDTH 8 0
BBX 2 9 3 -1
BITMAP
C0
C0
C0
C0
C0
C0
C0
C0
C0
ENDCHAR
STARTCHAR U+007D
ENCODING 125
SWIDTH 960 0
DWIDTH 8 0
BBX 6 9 1 -1
BITMAP
E0
30
30
30
1C
30
30
30
E0
ENDCHAR
STARTCHAR U+007E
ENCODING 126
SWIDTH 960 0
DWIDTH 8 0
BBX 7 3 1 2
BITMAP
66
D6
CC
ENDCHAR
STARTCHAR U+00A0
ENCODING 160
SWIDTH 960 0
DWIDTH 8 0
BBX 0 0 0 0
BITMAP
ENDCHAR
STARTCHAR U+00A1
ENCODING 161
SWIDTH 960 0
DWIDTH 8 0
BBX 4 8 2 -1
BITMAP
60
60
00
60
60
F0
F0
60
ENDCHAR
STARTCHAR U+00A2
ENCODING 162
SWIDTH 960 0
DWIDTH 8 0
BBX 6 9 1 -1
BITMAP
10
10
78
CC
C0
CC
78
20
20
ENDCHAR
STARTCHAR U+00A3
ENCODING 163
SWIDTH 960 0
DWIDTH 8 0
BBX 6 7 1 0
BITMAP
38
6C
60
F0
60
64
DC
ENDCHAR
STARTCHAR U+00A4
ENCODING 164
SWIDTH 960 0
DWIDTH 8 0
BBX 6 6 1 0
BITMAP
CC
78
CC
CC
78
CC
ENDCHAR
STARTCHAR U+00A5
ENCODING 165
SWIDTH 960 0
DWIDTH 8 0
BBX 6 7 1 0
BITMAP
CC
78
30
FC
30
FC
30
ENDCHAR
STARTCHAR U+00A6
ENCODING 166
SWIDTH 960 0
DWIDTH 8 0
BBX 2 9 3 -1
BITMAP
C0
C0
C0
C0
00
C0
C0
C0
C0
ENDCHAR
STARTCHAR U+00A7
ENCODING 167
SWIDTH 960 0
DWIDTH 8 0
BBX 6 7 1 0
BITMAP
78
C0
78
CC
78
0C
78
ENDCHAR
STARTCHAR U+00A8
ENCODING 168
SWIDTH 960 0
DWIDTH 8 0
BBX 6 2 1 5
BITMAP
CC
CC
ENDCHAR
STARTCHAR U+00A9
ENCODING 169
SWIDTH 960 0
DWIDTH 8 0
BBX 8 8 0 -1
BITMAP
3C
42
99
A1
A5
99
42
3C
ENDCHAR
STARTCHAR U+00AA
ENCODING 170
SWIDTH 960 0
DWIDTH 8 0
BBX 5 6 1 2
BITMAP
78
D8
D8
68
00
F8
ENDCHAR
STARTCHAR U+00AB
ENCODING 171
SWIDTH 960 0
DWIDTH 8 0
BBX 6 5 1 1
BITMAP
24
6C
D8
6C
24
ENDCHAR
STARTCHAR U+00AC
ENCODING 172
SWIDTH 960 0
DWIDTH 8 0
BBX 6 3 1 1
BITMAP
FC
0C
0C
ENDCHAR
STARTCHAR U+00AD
ENCODING 173
SWIDTH 960 0
DWIDTH 8 0
BBX 4 1 2 3
BITMAP
F0
ENDCHAR
STARTCHAR U+00AE
ENCODING 174
SWIDTH 960 0
DWIDTH 8 0
BBX 8 8 0 -1
BITMAP
3C
42
B9
A5
B9
A5
42
3C
ENDCHAR
STARTCHAR U+00AF
ENCODING 175
SWIDTH 960 0
DWIDTH 8 0
BBX 6 1 1 6
BITMAP
FC
ENDCHAR
STARTCHAR U+00B0
ENCODING 176
SWIDTH 960 0
DWIDTH 8 0
BBX 5 4 1 3
BITMAP
70
D8
D8
70
ENDCHAR
STARTCHAR U+00B1
ENCODING 177
SWIDTH 960 0
DWIDTH 8 0
BBX 6 7 1 0
BITMAP
30
30
FC
30
30
00
FC
ENDCHAR
STARTCHAR U+00B2
ENCODING 178
SWIDTH 960 0
DWIDTH 8 0
BBX 4 5 2 3
BITMAP
E0
B0
30
60
F0
ENDCHAR
STARTCHAR U+00B3
ENCODING 179
SWIDTH 960 0
DWIDTH 8 0
BBX 4 5 2 3
BITMAP
E0
30
60
30
E0
ENDCHAR
STARTCHAR U+00B4
ENCODING 180
SWIDTH 960 0
DWIDTH 8 0
BBX 4 3 2 4
BITMAP
30
60
C0
ENDCHAR
STARTCHAR U+00B5
ENCODING 181
SWIDTH 960 0
DWIDTH 8 0
BBX 7 6 1 -1
BITMAP
CC
CC
CC
CC
F6
C0
ENDCHAR
STARTCHAR U+00B6
ENCODING 182
SWIDTH 960 0
DWIDTH 8 0
BBX 7 9 1 -2
BITMAP
7E
EC
EC
6C
0C
0C
0C
0C
18
ENDCHAR
STARTCHAR U+00B7
ENCODING 183
SWIDTH 960 0
DWIDTH 8 0
BBX 2 2 3 2
BITMAP
C0
C0
ENDCHAR
STARTCHAR U+00B8
ENCODING 184
SWIDTH 960 0
DWIDTH 8 0
BBX 4 3 2 -1
BITMAP
60
30
E0
ENDCHAR
STARTCHAR U+00B9
ENCODING 185
SWIDTH 960 0
DWIDTH 8 0
BBX 4 5 2 3
BITMAP
20
E0
60
60
F0
ENDCHAR
STARTCHAR U+00BA
ENCODING 186
SWIDTH 960 0
DWIDTH 8 0
BBX 5 6 1 1
BITMAP
70
D8
D8
70
00
F8
ENDCHAR
STARTCHAR U+00BB
ENCODING 187
SWIDTH 960 0
DWIDTH 8 0
BBX 6 5 1 1
BITMAP
90
D8
6C
D8
90
ENDCHAR
STARTCHAR U+00BC
ENCODING 188
SWIDTH 960 0
DWIDTH 8 0
BBX 6 11 1 -2
BITMAP
20
E0
60
60
F0
00
0C
1C
3C
0C
0C
ENDCHAR
STARTCHAR U+00BD
ENCODING 189
SWIDTH 960 0
DWIDTH 8 0
BBX 6 11 1 -2
BITMAP
20
E0
60
60
F0
00
38
2C
0C
18
3C
ENDCHAR
STARTCHAR U+00BE
ENCODING 190
SWIDTH 960 0
DWIDTH 8 0
BBX 6 11 1 -2
BITMAP
E0
30
60
30
E0
00
0C
1C
3C
0C
0C
ENDCHAR
STARTCHAR U+00BF
ENCODING 191
SWIDTH 960 0
DWIDTH 8 0
BBX 6 8 1 -1
BITMAP
30
30
00
30
60
C0
CC
78
ENDCHAR
STARTCHAR U+00C0
ENCODING 192
SWIDTH 960 0
DWIDTH 8 0
BBX 6 10 1 0
BITMAP
60
30
00
10
28
4C
FC
CC
CC
CC
ENDCHAR
STARTCHAR U+00C1
ENCODING 193
SWIDTH 960 0
DWIDTH 8 0
BBX 6 10 1 0
BITMAP
18
30
00
10
28
4C
FC
CC
CC
CC
ENDCHAR
STARTCHAR U+00C2
ENCODING 194
SWIDTH 960 0
DWIDTH 8 0
BBX 6 10 1 0
BITMAP
38
6C
00
10
28
4C
FC
CC
CC
CC
ENDCHAR
STARTCHAR U+00C3
ENCODING 195
SWIDTH 960 0
DWIDTH 8 0
BBX 6 10 1 0
BITMAP
6C
D8
00
10
28
4C
FC
CC
CC
CC
ENDCHAR
STARTCHAR U+00C4
ENCODING 196
SWIDTH 960 0
DWIDTH 8 0
BBX 6 10 1 0
BITMAP
CC
CC
00
10
28
4C
FC
CC
CC
CC
ENDCHAR
STARTCHAR U+00C5
ENCODING 197
SWIDTH 960 0
DWIDTH 8 0
BBX 6 10 1 0
BITMAP
38
28
38
10
28
4C
FC
CC
CC
CC
ENDCHAR
STARTCHAR U+00C6
ENCODING 198
SWIDTH 960 0
DWIDTH 8 0
BBX 7 7 1 0
BITMAP
3E
58
D8
FC
D8
D8
DE
ENDCHAR
STARTCHAR U+00C7
ENCODING 199
SWIDTH 960 0
DWIDTH 8 0
BBX 6 9 1 -2
BITMAP
78
CC
C0
C0
C0
CC
78
18
38
ENDCHAR
STARTCHAR U+00C8
ENCODING 200
SWIDTH 960 0
DWIDTH 8 0
BBX 6 10 1 0
BITMAP
60
30
00
FC
C4
C0
F0
C0
C4
FC
ENDCHAR
STARTCHAR U+00C9
ENCODING 201
SWIDTH 960 0
DWIDTH 8 0
BBX 6 10 1 0
BITMAP
18
30
00
FC
C4
C0
F0
C0
C4
FC
ENDCHAR
STARTCHAR U+00CA
ENCODING 202
SWIDTH 960 0
DWIDTH 8 0
BBX 6 10 1 0
BITMAP
38
6C
00
FC
C4
C0
F0
C0
C4
FC
ENDCHAR
STARTCHAR U+00CB
ENCODING 203
SWIDTH 960 0
DWIDTH 8 0
BBX 6 10 1 0
BITMAP
CC
CC
00
FC
C4
C0
F0
C0
C4
FC
ENDCHAR
STARTCHAR U+00CC
ENCODING 204
SWIDTH 960 0
DWIDTH 8 0
BBX 6 10 1 0
BITMAP
60
30
00
FC
30
30
30
30
30
FC
ENDCHAR
STARTCHAR U+00CD
ENCODING 205
SWIDTH 960 0
DWIDTH 8 0
BBX 6 10 1 0
BITMAP
18
30
00
FC
30
30
30
30
30
FC
ENDCHAR
STARTCHAR U+00CE
ENCODING 206
SWIDTH 960 0
DWIDTH 8 0
BBX 6 10 1 0
BITMAP
38
6C
00
FC
30
30
30
30
30
FC
ENDCHAR
STARTCHAR U+00CF
ENCODING 207
SWIDTH 960 0
DWIDTH 8 0
BBX 6 10 1 0
BITMAP
CC
CC
00
FC
30
30
30
30
30
FC
ENDCHAR
STARTCHAR U+00D0
ENCODING 208
SWIDTH 960 0
DWIDTH 8 0
BBX 7 7 0 0
BITMAP
78
64
66
F6
66
64
78
ENDCHAR
STARTCHAR U+00D1
ENCODING 209
SWIDTH 960 0
DWIDTH 8 0
BBX 6 10 1 0
BITMAP
6C
D8
00
8C
CC
EC
DC
CC
CC
CC
ENDCHAR
STARTCHAR U+00D2
ENCODING 210
SWIDTH 960 0
DWIDTH 8 0
BBX 6 10 1 0
BITMAP
60
30
00
78
CC
CC
CC
CC
CC
78
ENDCHAR
STARTCHAR U+00D3
ENCODING 211
SWIDTH 960 0
DWIDTH 8 0
BBX 6 10 1 0
BITMAP
18
30
00
78
CC
CC
CC
CC
CC
78
ENDCHAR
STARTCHAR U+00D4
ENCODING 212
SWIDTH 960 0
DWIDTH 8 0
BBX 6 10 1 0
BITMAP
38
6C
00
78
CC
CC
CC
CC
CC
78
ENDCHAR
STARTCHAR U+00D5
ENCODING 213
SWIDTH 960 0
DWIDTH 8 0
BBX 6 10 1 0
BITMAP
6C
D8
00
78
CC
CC
CC
CC
CC
78
ENDCHAR
STARTCHAR U+00D6
ENCODING 214
SWIDTH 960 0
DWIDTH 8 0
BBX 6 10 1 0
BITMAP
CC
CC
00
78
CC
CC
CC
CC
CC
78
ENDCHAR
STARTCHAR U+00D7
ENCODING 215
SWIDTH 960 0
DWIDTH 8 0
BBX 6 5 1 1
BITMAP
CC
78
30
78
CC
ENDCHAR
STARTCHAR U+00D8
ENCODING 216
SWIDTH 960 0
DWIDTH 8 0
BBX 6 9 1 -1
BITMAP
0C
78
CC
DC
FC
EC
CC
78
C0
ENDCHAR
STARTCHAR U+00D9
ENCODING 217
SWIDTH 960 0
DWIDTH 8 0
BBX 6 10 1 0
BITMAP
60
30
00
CC
CC
CC
CC
CC
CC
78
ENDCHAR
STARTCHAR U+00DA
ENCODING 218
SWIDTH 960 0
DWIDTH 8 0
BBX 6 10 1 0
BITMAP
18
30
00
CC
CC
CC
CC
CC
CC
78
ENDCHAR
STARTCHAR U+00DB
ENCODING 219
SWIDTH 960 0
DWIDTH 8 0
BBX 6 10 1 0
BITMAP
38
6C
00
CC
CC
CC
CC
CC
CC
78
ENDCHAR
STARTCHAR U+00DC
ENCODING 220
SWIDTH 960 0
DWIDTH 8 0
BBX 6 10 1 0
BITMAP
CC
CC
00
CC
CC
CC
CC
CC
CC
78
ENDCHAR
STARTCHAR U+00DD
ENCODING 221
SWIDTH 960 0
DWIDTH 8 0
BBX 6 11 1 -1
BITMAP
18
30
00
CC
CC
DC
6C
0C
0C
CC
78
ENDCHAR
STARTCHAR U+00DE
ENCODING 222
SWIDTH 960 0
DWIDTH 8 0
BBX 6 7 1 0
BITMAP
C0
F8
CC
CC
D8
C0
C0
ENDCHAR
STARTCHAR U+00DF
ENCODING 223
SWIDTH 960 0
DWIDTH 8 0
BBX 7 7 1 0
BITMAP
78
CC
D8
D8
CC
C6
DC
ENDCHAR
STARTCHAR U+00E0
ENCODING 224
SWIDTH 960 0
DWIDTH 8 0
BBX 6 8 1 0
BITMAP
60
30
00
78
0C
7C
CC
6C
ENDCHAR
STARTCHAR U+00E1
ENCODING 225
SWIDTH 960 0
DWIDTH 8 0
BBX 6 8 1 0
BITMAP
18
30
00
78
0C
7C
CC
6C
ENDCHAR
STARTCHAR U+00E2
ENCODING 226
SWIDTH 960 0
DWIDTH 8 0
BBX 6 8 1 0
BITMAP
38
6C
00
78
0C
7C
CC
6C
ENDCHAR
STARTCHAR U+00E3
ENCODING 227
SWIDTH 960 0
DWIDTH 8 0
BBX 6 8 1 0
BITMAP
6C
D8
00
78
0C
7C
CC
6C
ENDCHAR
STARTCHAR U+00E4
ENCODING 228
SWIDTH 960 0
DWIDTH 8 0
BBX 6 8 1 0
BITMAP
CC
CC
00
78
0C
7C
CC
6C
ENDCHAR
STARTCHAR U+00E5
ENCODING 229
SWIDTH 960 0
DWIDTH 8 0
BBX 6 9 1 0
BITMAP
38
28
38
00
78
0C
7C
CC
6C
ENDCHAR
STARTCHAR U+00E6
ENCODING 230
SWIDTH 960 0
DWIDTH 8 0
BBX 8 5 0 0
BITMAP
7E
1B
7F
D8
7E
ENDCHAR
STARTCHAR U+00E7
ENCODING 231
SWIDTH 960 0
DWIDTH 8 0
BBX 6 7 1 -2
BITMAP
78
CC
C0
CC
78
18
38
ENDCHAR
STARTCHAR U+00E8
ENCODING 232
SWIDTH 960 0
DWIDTH 8 0
BBX 6 8 1 0
BITMAP
60
30
00
78
CC
FC
C0
78
ENDCHAR
STARTCHAR U+00E9
ENCODING 233
SWIDTH 960 0
DWIDTH 8 0
BBX 6 8 1 0
BITMAP
18
30
00
78
CC
FC
C0
78
ENDCHAR
STARTCHAR U+00EA
ENCODING 234
SWIDTH 960 0
DWIDTH 8 0
BBX 6 8 1 0
BITMAP
38
6C
00
78
CC
FC
C0
78
ENDCHAR
STARTCHAR U+00EB
ENCODING 235
SWIDTH 960 0
DWIDTH 8 0
BBX 6 8 1 0
BITMAP
CC
CC
00
78
CC
FC
C0
78
ENDCHAR
STARTCHAR U+00EC
ENCODING 236
SWIDTH 960 0
DWIDTH 8 0
BBX 6 8 1 0
BITMAP
60
30
00
F0
30
30
30
1C
ENDCHAR
STARTCHAR U+00ED
ENCODING 237
SWIDTH 960 0
DWIDTH 8 0
BBX 6 8 1 0
BITMAP
18
30
00
F0
30
30
30
1C
ENDCHAR
STARTCHAR U+00EE
ENCODING 238
SWIDTH 960 0
DWIDTH 8 0
BBX 6 8 1 0
BITMAP
38
6C
00
F0
30
30
30
1C
ENDCHAR
STARTCHAR U+00EF
ENCODING 239
SWIDTH 960 0
DWIDTH 8 0
BBX 6 8 1 0
BITMAP
CC
CC
00
F0
30
30
30
1C
ENDCHAR
STARTCHAR U+00F0
ENCODING 240
SWIDTH 960 0
DWIDTH 8 0
BBX 6 9 1 0
BITMAP
D8
70
D8
0C
6C
CC
CC
CC
78
ENDCHAR
STARTCHAR U+00F1
ENCODING 241
SWIDTH 960 0
DWIDTH 8 0
BBX 6 8 1 0
BITMAP
6C
D8
00
D8
EC
CC
CC
CC
ENDCHAR
STARTCHAR U+00F2
ENCODING 242
SWIDTH 960 0
DWIDTH 8 0
BBX 6 8 1 0
BITMAP
60
30
00
78
CC
CC
CC
78
ENDCHAR
STARTCHAR U+00F3
ENCODING 243
SWIDTH 960 0
DWIDTH 8 0
BBX 6 8 1 0
BITMAP
18
30
00
78
CC
CC
CC
78
ENDCHAR
STARTCHAR U+00F4
ENCODING 244
SWIDTH 960 0
DWIDTH 8 0
BBX 6 8 1 0
BITMAP
38
6C
00
78
CC
CC
CC
78
ENDCHAR
STARTCHAR U+00F5
ENCODING 245
SWIDTH 960 0
DWIDTH 8 0
BBX 6 8 1 0
BITMAP
6C
D8
00
78
CC
CC
CC
78
ENDCHAR
STARTCHAR U+00F6
ENCODING 246
SWIDTH 960 0
DWIDTH 8 0
BBX 6 5 1 0
BITMAP
78
CC
CC
CC
78
ENDCHAR
STARTCHAR U+00F7
ENCODING 247
SWIDTH 960 0
DWIDTH 8 0
BBX 6 7 1 0
BITMAP
30
30
00
FC
00
30
30
ENDCHAR
STARTCHAR U+00F8
ENCODING 248
SWIDTH 960 0
DWIDTH 8 0
BBX 6 7 1 -1
BITMAP
0C
78
DC
FC
EC
78
C0
ENDCHAR
STARTCHAR U+00F9
ENCODING 249
SWIDTH 960 0
DWIDTH 8 0
BBX 6 8 1 0
BITMAP
60
30
00
CC
CC
CC
DC
6C
ENDCHAR
STARTCHAR U+00FA
ENCODING 250
SWIDTH 960 0
DWIDTH 8 0
BBX 6 8 1 0
BITMAP
18
30
00
CC
CC
CC
DC
6C
ENDCHAR
STARTCHAR U+00FB
ENCODING 251
SWIDTH 960 0
DWIDTH 8 0
BBX 6 8 1 0
BITMAP
38
6C
00
CC
CC
CC
DC
6C
ENDCHAR
STARTCHAR U+00FC
ENCODING 252
SWIDTH 960 0
DWIDTH 8 0
BBX 6 8 1 0
BITMAP
CC
CC
00
CC
CC
CC
DC
6C
ENDCHAR
STARTCHAR U+00FD
ENCODING 253
SWIDTH 960 0
DWIDTH 8 0
BBX 6 10 1 -2
BITMAP
18
30
00
CC
CC
CC
DC
6C
0C
78
ENDCHAR
STARTCHAR U+00FE
ENCODING 254
SWIDTH 960 0
DWIDTH 8 0
BBX 6 9 1 -2
BITMAP
C0
C0
D8
EC
CC
CC
D8
C0
C0
ENDCHAR
STARTCHAR U+00FF
ENCODING 255
SWIDTH 960 0
DWIDTH 8 0
BBX 6 10 1 -2
BITMAP
CC
CC
00
CC
CC
CC
DC
6C
0C
78
ENDCHAR
STARTCHAR U+2013
ENCODING 8211
SWIDTH 960 0
DWIDTH 8 0
BBX 6 1 1 3
BITMAP
FC
ENDCHAR
STARTCHAR U+2014
ENCODING 8212
SWIDTH 960 0
DWIDTH 8 0
BBX 8 1 0 3
BITMAP
FF
ENDCHAR
STARTCHAR U+2015
ENCODING 8213
SWIDTH 960 0
DWIDTH 8 0
BBX 8 1 0 3
BITMAP
FF
ENDCHAR
STARTCHAR U+2017
ENCODING 8215
SWIDTH 960 0
DWIDTH 8 0
BBX 6 3 1 -2
BITMAP
FC
00
FC
ENDCHAR
STARTCHAR U+2018
ENCODING 8216
SWIDTH 960 0
DWIDTH 8 0
BBX 2 4 3 4
BITMAP
40
80
C0
C0
ENDCHAR
STARTCHAR U+2019
ENCODING 8217
SWIDTH 960 0
DWIDTH 8 0
BBX 2 4 3 4
BITMAP
C0
C0
40
80
ENDCHAR
STARTCHAR U+201A
ENCODING 8218
SWIDTH 960 0
DWIDTH 8 0
BBX 2 4 3 -2
BITMAP
C0
C0
40
80
ENDCHAR
STARTCHAR U+201B
ENCODING 8219
SWIDTH 960 0
DWIDTH 8 0
BBX 2 4 3 4
BITMAP
C0
C0
80
40
ENDCHAR
STARTCHAR U+201C
ENCODING 8220
SWIDTH 960 0
DWIDTH 8 0
BBX 5 4 2 4
BITMAP
48
90
D8
D8
ENDCHAR
STARTCHAR U+201D
ENCODING 8221
SWIDTH 960 0
DWIDTH 8 0
BBX 5 4 1 4
BITMAP
D8
D8
48
90
ENDCHAR
STARTCHAR U+201E
ENCODING 8222
SWIDTH 960 0
DWIDTH 8 0
BBX 5 4 1 -2
BITMAP
D8
D8
48
90
ENDCHAR
STARTCHAR U+2022
ENCODING 8226
SWIDTH 960 0
DWIDTH 8 0
BBX 4 4 2 2
BITMAP
60
F0
F0
60
ENDCHAR
STARTCHAR U+2026
ENCODING 8230
SWIDTH 960 0
DWIDTH 8 0
BBX 8 2 0 0
BITMAP
DB
DB
ENDCHAR
STARTCHAR U+2030
ENCODING 8240
SWIDTH 960 0
DWIDTH 8 0
BBX 8 7 0 0
BITMAP
C4
CC
18
30
60
DB
9B
ENDCHAR
STARTCHAR U+2032
ENCODING 8242
SWIDTH 960 0
DWIDTH 8 0
BBX 3 3 2 4
BITMAP
60
C0
80
ENDCHAR
STARTCHAR U+2033
ENCODING 8243
SWIDTH 960 0
DWIDTH 8 0
BBX 6 3 1 4
BITMAP
6C
D8
90
ENDCHAR
STARTCHAR U+2039
ENCODING 8249
SWIDTH 960 0
DWIDTH 8 0
BBX 3 5 3 1
BITMAP
20
60
C0
60
20
ENDCHAR
STARTCHAR U+203A
ENCODING 8250
SWIDTH 960 0
DWIDTH 8 0
BBX 3 5 2 1
BITMAP
80
C0
60
C0
80
ENDCHAR
STARTCHAR U+203C
ENCODING 8252
SWIDTH 960 0
DWIDTH 8 0
BBX 6 8 1 0
BITMAP
CC
CC
CC
CC
CC
00
CC
CC
ENDCHAR
STARTCHAR U+203E
ENCODING 8254
SWIDTH 960 0
DWIDTH 8 0
BBX 6 1 1 7
BITMAP
FC
ENDCHAR
STARTCHAR U+2044
ENCODING 8260
SWIDTH 960 0
DWIDTH 8 0
BBX 6 7 1 0
BITMAP
04
0C
18
30
60
C0
80
ENDCHAR
ENDFONT
